<svg id="visual" viewBox="0 0 1920 1080" width="1920" height="1080" xmlns="http://www.w3.org/2000/svg" xmlns:xlink="http://www.w3.org/1999/xlink" version="1.1"><path d="M0 87L160 90.7C320 94.3 640 101.7 960 114.3C1280 127 1600 145 1760 154L1920 163L1920 0L1760 0C1600 0 1280 0 960 0C640 0 320 0 160 0L0 0Z" fill="#e3e1d4"></path><path d="M0 271L160 267.3C320 263.7 640 256.3 960 256.3C1280 256.3 1600 263.7 1760 267.3L1920 271L1920 161L1760 152C1600 143 1280 125 960 112.3C640 99.7 320 92.3 160 88.7L0 85Z" fill="#dfdccd"></path><path d="M0 336L160 334.2C320 332.3 640 328.7 960 343C1280 357.3 1600 389.7 1760 405.8L1920 422L1920 269L1760 265.3C1600 261.7 1280 254.3 960 254.3C640 254.3 320 261.7 160 265.3L0 269Z" fill="#dcd8c7"></path><path d="M0 595L160 586C320 577 640 559 960 577C1280 595 1600 649 1760 676L1920 703L1920 420L1760 403.8C1600 387.7 1280 355.3 960 341C640 326.7 320 330.3 160 332.2L0 334Z" fill="#d8d3c0"></path><path d="M0 703L160 685C320 667 640 631 960 658C1280 685 1600 775 1760 820L1920 865L1920 701L1760 674C1600 647 1280 593 960 575C640 557 320 575 160 584L0 593Z" fill="#cec8b2"></path><path d="M0 843L160 850.3C320 857.7 640 872.3 960 910.2C1280 948 1600 1009 1760 1039.5L1920 1070L1920 863L1760 818C1600 773 1280 683 960 656C640 629 320 665 160 683L0 701Z" fill="#c3bda5"></path><path d="M0 1081L160 1081C320 1081 640 1081 960 1081C1280 1081 1600 1081 1760 1081L1920 1081L1920 1068L1760 1037.5C1600 1007 1280 946 960 908.2C640 870.3 320 855.7 160 848.3L0 841Z" fill="#b9b298"></path></svg>