<svg 
  id="visual" 
  viewBox="0 0 1920 1080" 
  preserveAspectRatio="xMinYMin slice"
  xmlns="http://www.w3.org/2000/svg" 
  xmlns:xlink="http://www.w3.org/1999/xlink" 
  version="1.1">
  <path d="M0 49L75 91C150 133 300 217 450 212C600 207 750 113 825 66L900 19L900 0L825 0C750 0 600 0 450 0C300 0 150 0 75 0L0 0Z" fill="#e3e1d4"></path>
  <path d="M0 199L75 219C150 239 300 279 450 264C600 249 750 179 825 144L900 109L900 17L825 64C750 111 600 205 450 210C300 215 150 131 75 89L0 47Z" fill="#dfdccd"></path>
  <path d="M0 283L75 289C150 295 300 307 450 279C600 251 750 183 825 149L900 115L900 107L825 142C750 177 600 247 450 262C300 277 150 237 75 217L0 197Z" fill="#dcd8c7"></path>
  <path d="M0 319L75 342C150 365 300 411 450 398C600 385 750 313 825 277L900 241L900 113L825 147C750 181 600 249 450 277C300 305 150 293 75 287L0 281Z" fill="#d8d3c0"></path>
  <path d="M0 415L75 430C150 445 300 475 450 454C600 433 750 361 825 325L900 289L900 239L825 275C750 311 600 383 450 396C300 409 150 363 75 340L0 317Z" fill="#cec8b2"></path>
  <path d="M0 547L75 548C150 549 300 551 450 555C600 559 750 565 825 568L900 571L900 287L825 323C750 359 600 431 450 452C300 473 150 443 75 428L0 413Z" fill="#c3bda5"></path>
  <path d="M0 601L75 601C150 601 300 601 450 601C600 601 750 601 825 601L900 601L900 569L825 566C750 563 600 557 450 553C300 549 150 547 75 546L0 545Z" fill="#b9b298"></path>
</svg>