<svg id="visual" viewBox="0 0 1920 1080" width="1920" height="1080" xmlns="http://www.w3.org/2000/svg" xmlns:xlink="http://www.w3.org/1999/xlink" version="1.1"><path d="M0 55L64 51.3C128 47.7 256 40.3 384 40.3C512 40.3 640 47.7 768 51.3C896 55 1024 55 1152 55C1280 55 1408 55 1536 51.3C1664 47.7 1792 40.3 1856 36.7L1920 33L1920 0L1856 0C1792 0 1664 0 1536 0C1408 0 1280 0 1152 0C1024 0 896 0 768 0C640 0 512 0 384 0C256 0 128 0 64 0L0 0Z" fill="#3a4b75"></path><path d="M0 120L64 116.3C128 112.7 256 105.3 384 101.7C512 98 640 98 768 103.5C896 109 1024 120 1152 120C1280 120 1408 109 1536 100C1664 91 1792 84 1856 80.5L1920 77L1920 31L1856 34.7C1792 38.3 1664 45.7 1536 49.3C1408 53 1280 53 1152 53C1024 53 896 53 768 49.3C640 45.7 512 38.3 384 38.3C256 38.3 128 45.7 64 49.3L0 53Z" fill="#34456d"></path><path d="M0 206L64 198.8C128 191.7 256 177.3 384 170.2C512 163 640 163 768 170.2C896 177.3 1024 191.7 1152 189.8C1280 188 1408 170 1536 164.7C1664 159.3 1792 166.7 1856 170.3L1920 174L1920 75L1856 78.5C1792 82 1664 89 1536 98C1408 107 1280 118 1152 118C1024 118 896 107 768 101.5C640 96 512 96 384 99.7C256 103.3 128 110.7 64 114.3L0 118Z" fill="#2f3f65"></path><path d="M0 249L64 245.5C128 242 256 235 384 227.8C512 220.7 640 213.3 768 215.2C896 217 1024 228 1152 226.2C1280 224.3 1408 209.7 1536 204.2C1664 198.7 1792 202.3 1856 204.2L1920 206L1920 172L1856 168.3C1792 164.7 1664 157.3 1536 162.7C1408 168 1280 186 1152 187.8C1024 189.7 896 175.3 768 168.2C640 161 512 161 384 168.2C256 175.3 128 189.7 64 196.8L0 204Z" fill="#29395e"></path><path d="M0 357L64 357C128 357 256 357 384 346.3C512 335.7 640 314.3 768 312.7C896 311 1024 329 1152 327.2C1280 325.3 1408 303.7 1536 292.8C1664 282 1792 282 1856 282L1920 282L1920 204L1856 202.2C1792 200.3 1664 196.7 1536 202.2C1408 207.7 1280 222.3 1152 224.2C1024 226 896 215 768 213.2C640 211.3 512 218.7 384 225.8C256 233 128 240 64 243.5L0 247Z" fill="#233356"></path><path d="M0 498L64 489C128 480 256 462 384 445.8C512 429.7 640 415.3 768 418.8C896 422.3 1024 443.7 1152 450.8C1280 458 1408 451 1536 452.8C1664 454.7 1792 465.3 1856 470.7L1920 476L1920 280L1856 280C1792 280 1664 280 1536 290.8C1408 301.7 1280 323.3 1152 325.2C1024 327 896 309 768 310.7C640 312.3 512 333.7 384 344.3C256 355 128 355 64 355L0 355Z" fill="#1e2d4f"></path><path d="M0 552L64 544.8C128 537.7 256 523.3 384 512.5C512 501.7 640 494.3 768 501.5C896 508.7 1024 530.3 1152 537.5C1280 544.7 1408 537.3 1536 533.7C1664 530 1792 530 1856 530L1920 530L1920 474L1856 468.7C1792 463.3 1664 452.7 1536 450.8C1408 449 1280 456 1152 448.8C1024 441.7 896 420.3 768 416.8C640 413.3 512 427.7 384 443.8C256 460 128 478 64 487L0 496Z" fill="#1b2949"></path><path d="M0 789L64 771C128 753 256 717 384 697.3C512 677.7 640 674.3 768 683.3C896 692.3 1024 713.7 1152 728C1280 742.3 1408 749.7 1536 760.5C1664 771.3 1792 785.7 1856 792.8L1920 800L1920 528L1856 528C1792 528 1664 528 1536 531.7C1408 535.3 1280 542.7 1152 535.5C1024 528.3 896 506.7 768 499.5C640 492.3 512 499.7 384 510.5C256 521.3 128 535.7 64 542.8L0 550Z" fill="#1a2745"></path><path d="M0 822L64 804C128 786 256 750 384 730.2C512 710.3 640 706.7 768 719.2C896 731.7 1024 760.3 1152 776.5C1280 792.7 1408 796.3 1536 803.7C1664 811 1792 822 1856 827.5L1920 833L1920 798L1856 790.8C1792 783.7 1664 769.3 1536 758.5C1408 747.7 1280 740.3 1152 726C1024 711.7 896 690.3 768 681.3C640 672.3 512 675.7 384 695.3C256 715 128 751 64 769L0 787Z" fill="#192542"></path><path d="M0 973L64 978.3C128 983.7 256 994.3 384 994.3C512 994.3 640 983.7 768 980.2C896 976.7 1024 980.3 1152 982.2C1280 984 1408 984 1536 987.5C1664 991 1792 998 1856 1001.5L1920 1005L1920 831L1856 825.5C1792 820 1664 809 1536 801.7C1408 794.3 1280 790.7 1152 774.5C1024 758.3 896 729.7 768 717.2C640 704.7 512 708.3 384 728.2C256 748 128 784 64 802L0 820Z" fill="#18243e"></path><path d="M0 1016L64 1019.7C128 1023.3 256 1030.7 384 1030.7C512 1030.7 640 1023.3 768 1021.5C896 1019.7 1024 1023.3 1152 1023.3C1280 1023.3 1408 1019.7 1536 1021.5C1664 1023.3 1792 1030.7 1856 1034.3L1920 1038L1920 1003L1856 999.5C1792 996 1664 989 1536 985.5C1408 982 1280 982 1152 980.2C1024 978.3 896 974.7 768 978.2C640 981.7 512 992.3 384 992.3C256 992.3 128 981.7 64 976.3L0 971Z" fill="#17223b"></path><path d="M0 1081L64 1081C128 1081 256 1081 384 1081C512 1081 640 1081 768 1081C896 1081 1024 1081 1152 1081C1280 1081 1408 1081 1536 1081C1664 1081 1792 1081 1856 1081L1920 1081L1920 1036L1856 1032.3C1792 1028.7 1664 1021.3 1536 1019.5C1408 1017.7 1280 1021.3 1152 1021.3C1024 1021.3 896 1017.7 768 1019.5C640 1021.3 512 1028.7 384 1028.7C256 1028.7 128 1021.3 64 1017.7L0 1014Z" fill="#162037"></path></svg>